<svg xmlns="http://www.w3.org/2000/svg" width="512" height="512"><path d="M302.081 401.058c17.839 0 32.352-14.514 32.352-32.353s-14.513-32.353-32.352-32.353-32.353 14.514-32.353 32.353 14.514 32.353 32.353 32.353zm0-49.705c9.567 0 17.352 7.784 17.352 17.353s-7.784 17.353-17.352 17.353-17.353-7.784-17.353-17.353 7.785-17.353 17.353-17.353zM104.165 310.767c0 17.839 14.514 32.353 32.353 32.353s32.353-14.514 32.353-32.353-14.514-32.353-32.353-32.353-32.353 14.514-32.353 32.353zm49.705 0c0 9.568-7.784 17.353-17.353 17.353s-17.353-7.784-17.353-17.353 7.784-17.353 17.353-17.353 17.353 7.785 17.353 17.353zM226.13 361.206h-12.617v-12.617c0-4.143-3.357-7.5-7.5-7.5s-7.5 3.357-7.5 7.5v12.617h-12.618c-4.143 0-7.5 3.357-7.5 7.5s3.357 7.5 7.5 7.5h12.618v12.618c0 4.143 3.357 7.5 7.5 7.5s7.5-3.357 7.5-7.5v-12.618h12.617c4.143 0 7.5-3.357 7.5-7.5s-3.358-7.5-7.5-7.5zM383.783 285.996c0-4.143-3.357-7.5-7.5-7.5s-7.5 3.357-7.5 7.5v7.871c0 4.143 3.357 7.5 7.5 7.5s7.5-3.357 7.5-7.5zM393.185 303.267c-4.143 0-7.5 3.357-7.5 7.5s3.357 7.5 7.5 7.5h7.87c4.143 0 7.5-3.357 7.5-7.5s-3.357-7.5-7.5-7.5zM376.283 320.167a7.499 7.499 0 0 0-7.5 7.5v7.87c0 4.143 3.357 7.5 7.5 7.5s7.5-3.357 7.5-7.5v-7.87a7.5 7.5 0 0 0-7.5-7.5zM351.513 303.267c-4.143 0-7.5 3.357-7.5 7.5s3.357 7.5 7.5 7.5h7.87c4.143 0 7.5-3.357 7.5-7.5s-3.357-7.5-7.5-7.5zM244.888 319.494c0-4.143-3.357-7.5-7.5-7.5h-5.317c-4.143 0-7.5 3.357-7.5 7.5s3.357 7.5 7.5 7.5h5.317a7.5 7.5 0 0 0 7.5-7.5zM287.431 319.494c0-4.143-3.357-7.5-7.5-7.5h-5.318c-4.143 0-7.5 3.357-7.5 7.5s3.357 7.5 7.5 7.5h5.318a7.5 7.5 0 0 0 7.5-7.5z"/><path d="M484.379 438.679 450.65 283.806a28.507 28.507 0 0 0-3.33-8.454 7.5 7.5 0 0 0-12.912 7.632 13.57 13.57 0 0 1 1.586 4.015l19.581 89.909-18.585 8.451a30.73 30.73 0 0 0-17.418 22.081l-6.932 35.708a15.667 15.667 0 0 1-10.703 11.975l-23.007 7.214-15.087-25.686c-11.782-20.06-33.554-32.521-56.818-32.521h-57.78c-4.143 0-7.5 3.357-7.5 7.5s3.357 7.5 7.5 7.5h57.78c17.969 0 34.784 9.625 43.885 25.118l22.271 37.916C383.99 500.568 403.965 512 425.309 512c18.385 0 35.544-8.211 47.078-22.527 11.534-14.317 15.905-32.831 11.992-50.794zm-23.674 41.383C452.033 490.827 439.132 497 425.309 497c-15.642 0-30.306-8.167-38.565-21.394l19.68-6.171a30.646 30.646 0 0 0 20.94-23.428l6.932-35.709a15.71 15.71 0 0 1 8.902-11.285l15.642-7.112 10.883 49.969c2.941 13.507-.345 27.427-9.018 38.192z"/><path d="M220.214 404.129h-15.237c-23.265 0-45.036 12.461-56.818 32.521l-15.087 25.686-23.008-7.214a15.663 15.663 0 0 1-10.701-11.975L92.43 407.44a30.736 30.736 0 0 0-17.418-22.081l-18.586-8.451 19.582-89.91a13.644 13.644 0 0 1 2.734-5.678l19.688-24.207a13.53 13.53 0 0 1 10.537-5.012h66.605c3.706 0 7.295 1.541 9.847 4.228l21.628 22.764a28.7 28.7 0 0 0 20.722 8.896h56.464a28.704 28.704 0 0 0 20.722-8.896l21.628-22.766a13.637 13.637 0 0 1 9.847-4.227h66.604c4.106 0 7.946 1.827 10.537 5.012l3.136 3.854a7.501 7.501 0 0 0 11.637-9.466l-3.136-3.854a28.465 28.465 0 0 0-22.174-10.547H379.91l-3.732-10.645a4.208 4.208 0 0 1 .083-3.005l7.171-17.311a4.215 4.215 0 0 1 2.067-2.187l23.11-11.112c6.614-3.181 10.888-9.978 10.888-17.317v-24.056c0-7.339-4.273-14.136-10.888-17.317L385.5 123.04a4.21 4.21 0 0 1-2.068-2.186l-7.17-17.311a4.206 4.206 0 0 1-.083-3.008l8.481-24.198c2.43-6.925.646-14.754-4.545-19.944l-17.01-17.01c-5.19-5.19-13.019-6.973-19.944-4.546l-24.199 8.483a4.214 4.214 0 0 1-3.007-.083l-17.312-7.172a4.214 4.214 0 0 1-2.186-2.066L285.345 10.89C282.165 4.274 275.367 0 268.028 0h-24.056c-7.339 0-14.136 4.274-17.316 10.888l-11.113 23.11a4.205 4.205 0 0 1-2.186 2.067l-17.313 7.172a4.21 4.21 0 0 1-3.006.083l-24.198-8.483c-6.926-2.428-14.754-.643-19.944 4.546l-17.011 17.01c-5.188 5.189-6.974 13.017-4.546 19.943l8.484 24.201a4.203 4.203 0 0 1-.084 3.005l-7.172 17.313a4.206 4.206 0 0 1-2.066 2.184l-23.109 11.113c-6.614 3.181-10.888 9.978-10.888 17.317v24.056c0 7.339 4.273 14.136 10.888 17.317l23.109 11.112a4.205 4.205 0 0 1 2.067 2.186l7.171 17.313a4.2 4.2 0 0 1 .083 3.006l-3.731 10.643h-23.125a28.468 28.468 0 0 0-22.174 10.547l-19.687 24.206a28.697 28.697 0 0 0-5.755 11.954L27.62 438.68c-3.912 17.964.459 36.478 11.993 50.794S68.308 512 86.692 512c21.344 0 41.318-11.433 52.129-29.837l22.271-37.916c9.101-15.493 25.916-25.118 43.885-25.118h15.237c4.143 0 7.5-3.357 7.5-7.5s-3.358-7.5-7.5-7.5zm-70.617-186.418-7.17-17.311a19.19 19.19 0 0 0-9.426-9.965l-23.109-11.112a4.237 4.237 0 0 1-2.388-3.798v-24.056c0-1.61.938-3.101 2.388-3.798l23.109-11.113a19.188 19.188 0 0 0 9.425-9.963l7.171-17.311a19.19 19.19 0 0 0 .382-13.71l-8.483-24.199a4.237 4.237 0 0 1 .996-4.375l17.012-17.01a4.24 4.24 0 0 1 4.374-.997l24.198 8.483a19.2 19.2 0 0 0 13.71-.38l17.312-7.171a19.186 19.186 0 0 0 9.964-9.425l11.113-23.109a4.238 4.238 0 0 1 3.799-2.389h24.056a4.24 4.24 0 0 1 3.799 2.388l11.112 23.109a19.186 19.186 0 0 0 9.964 9.425l17.312 7.171a19.194 19.194 0 0 0 13.71.38l24.199-8.483a4.237 4.237 0 0 1 4.374.997l17.01 17.01a4.235 4.235 0 0 1 .997 4.375l-8.481 24.197a19.187 19.187 0 0 0 .38 13.711l7.171 17.313a19.197 19.197 0 0 0 9.425 9.962l23.11 11.113a4.237 4.237 0 0 1 2.388 3.798v24.056c0 1.61-.938 3.101-2.388 3.798l-23.111 11.113a19.194 19.194 0 0 0-9.424 9.963l-7.172 17.313a19.19 19.19 0 0 0-.38 13.708l1.991 5.681h-27.585a28.704 28.704 0 0 0-20.722 8.896l-21.628 22.765a13.642 13.642 0 0 1-9.847 4.228H227.77a13.638 13.638 0 0 1-9.847-4.228l-21.628-22.764a28.7 28.7 0 0 0-20.722-8.896h-27.585l1.991-5.679a19.192 19.192 0 0 0-.382-13.711zM86.692 497c-13.823 0-26.725-6.174-35.396-16.938-8.673-10.765-11.96-24.686-9.019-38.192L53.16 391.9l15.642 7.112a15.71 15.71 0 0 1 8.902 11.286l6.932 35.707a30.646 30.646 0 0 0 20.938 23.429l19.682 6.171C116.998 488.833 102.334 497 86.692 497z"/><path d="M256 249.715c47.541 0 86.219-38.677 86.219-86.218S303.541 77.279 256 77.279a85.757 85.757 0 0 0-32.227 6.25c-3.842 1.55-5.699 5.92-4.149 9.761s5.92 5.698 9.761 4.15A70.826 70.826 0 0 1 256 92.279c39.271 0 71.219 31.948 71.219 71.218S295.271 234.715 256 234.715c-39.27 0-71.218-31.948-71.218-71.218 0-19.842 7.979-38.269 22.465-51.887a7.502 7.502 0 0 0-10.274-10.93c-17.28 16.244-27.191 39.14-27.191 62.816 0 47.542 38.677 86.219 86.218 86.219z"/></svg>