<svg xmlns="http://www.w3.org/2000/svg" xml:space="preserve" id="Layer_1" x="0" y="0" style="enable-background:new 0 0 67.1 17.2" version="1.1" viewBox="0 0 67.1 17.2"><style>.st0{fill:#fff}</style><path d="m1.7 6.2.2 1.2.2-1.2L3.5.1h.6l1.4 6.1.2 1.2.2-1.2L7.1.1H8L6.3 8.6h-.7L4.1 2.1l-.2-.8-.2.8-1.5 6.5h-.7L-.3.1h.7l1.3 6.1zM16.4 5.6c0 1-.2 1.8-.7 2.4s-1.1.8-2 .8c-.8 0-1.5-.3-1.9-.8S11 6.6 11 5.6V3.2c0-1 .2-1.8.7-2.4s1.1-.8 2-.8c.8 0 1.5.3 2 .8s.7 1.3.7 2.4v2.4zm-.7-2.4c0-.8-.2-1.5-.5-1.9s-.8-.6-1.5-.6c-.6 0-1.1.2-1.4.6s-.5 1.1-.5 1.9v2.4c0 .9.2 1.5.5 1.9s.8.6 1.5.6c.6 0 1.1-.2 1.5-.6s.5-1.1.5-1.9V3.2h-.1zM20.7 8h3.4v.6H20V.1h.7V8zM31.4 4.7H28v4h-.7V.1h4.6v.6H28V4h3.4v.7zM40.3 7.5c-.2.3-.4.6-.9.9s-1 .4-1.6.4c-.9 0-1.5-.3-2.1-.8S35 6.6 35 5.6V3.1c0-1 .2-1.8.7-2.3s1.2-.8 2-.8 1.4.2 1.9.6.7 1 .7 1.8h-.7c0-.6-.2-1-.5-1.3s-.8-.5-1.4-.5c-.6 0-1.1.2-1.5.6s-.5 1-.5 1.8v2.6c0 .8.2 1.5.6 1.9s.9.7 1.6.7c.5 0 .9-.1 1.2-.3.3-.2.5-.4.6-.6V5h-1.8v-.6h2.5l-.1 3.1zM48 6.3h-3.1l-.7 2.4h-.7L46.2.2h.6l2.7 8.5h-.7L48 6.3zm-2.9-.7h2.7l-1.3-4.4-1.4 4.4zM57.9 8.6h-.7l-3.8-7.1v7.1h-.7V.1h.7l3.8 7.1V.1h.7v8.5zM66.9 7.5c-.2.3-.4.6-.9.9s-1 .4-1.6.4c-.9 0-1.5-.3-2.1-.8s-.8-1.3-.8-2.3V3.1c0-1 .2-1.8.7-2.3s1.2-.8 2-.8 1.4.2 1.9.6.7 1 .7 1.8h-.7c0-.6-.2-1-.5-1.3s-.8-.5-1.4-.5-1.1.2-1.5.6-.5 1-.5 1.8v2.6c0 .8.2 1.5.6 1.9s.9.7 1.6.7c.5 0 .9-.1 1.2-.3.3-.2.5-.4.6-.6V5h-1.8v-.6h2.5v3.1zM6.1 17.1H4.4v-3.5H1.7v3.5H.1V8.6h1.7v3.7h2.6V8.6h1.7v8.5zM13.1 14.1c0 1-.3 1.8-.8 2.3s-1.3.8-2.2.8-1.6-.2-2.2-.8c-.6-.6-.8-1.3-.8-2.3v-2.4c0-1 .3-1.8.8-2.3s1.3-.9 2.2-.9 1.6.3 2.2.9.8 1.4.8 2.3v2.4zm-1.7-2.4c0-.6-.1-1.1-.3-1.4s-.6-.5-1-.5-.8.2-1 .5-.3.7-.3 1.4v2.4c0 .6.1 1.1.3 1.4.2.3.6.5 1 .5s.8-.2 1-.5.3-.8.3-1.4v-2.4zM19.5 14.4c0 1-.2 1.7-.7 2.2s-1.1.7-2 .7-1.6-.3-2.1-.8-.7-1.4-.7-2.4v-2.5c0-1 .3-1.8.8-2.3s1.2-.8 2-.8c.9 0 1.6.2 2.1.7s.7 1.2.7 2.2H18c0-.6-.1-1-.2-1.2s-.5-.4-.9-.4-.7.1-.9.4-.3.7-.3 1.3v2.6c0 .6.1 1.1.3 1.3.2.3.5.4.9.4s.7-.1.8-.3.2-.6.2-1.2l1.6.1zM26.5 17.1h-1.7v-3.5h-2.6v3.5h-1.7V8.6h1.7v3.7h2.6V8.6h1.7v8.5z" class="st0"/><path d="M29.5 15.8h3.1v1.3h-4.8V8.6h1.7v7.2zM38 13.4h-2.9v2.4h3.4v1.3h-5V8.6h5v1.3h-3.4V12H38v1.4zM41.1 17.1h-1.7V8.6h1.7v8.5zM47.3 9.9h-1.9v7.2h-1.7V9.9h-1.9V8.6h5.5v1.3zM54.1 17.1h-1.7l-2.6-5.5V17h-1.7V8.6h1.7l2.6 5.4V8.6h1.7v8.5zM59.9 13.4H57v2.4h3.4v1.3h-5V8.6h5v1.3H57V12h2.9v1.4zM63 13.7v3.4h-1.7V8.6h2.8c.8 0 1.5.2 2 .7s.7 1.1.7 1.8c0 .4-.1.8-.3 1.2s-.5.6-.9.7c.4.1.8.4.9.7s.3.8.3 1.3v.6c0 .2 0 .5.1.8s.2.5.3.6v.1h-1.7c-.1-.1-.2-.3-.3-.6s-.1-.6-.1-.9V15c0-.4-.1-.8-.3-1s-.4-.4-.7-.4l-1.1.1zm0-1.3h1.1c.3 0 .6-.1.8-.3s.3-.5.3-.9-.1-.7-.3-.9-.4-.3-.8-.3H63v2.4z" class="st0"/></svg>