<svg xmlns="http://www.w3.org/2000/svg" width="512" height="512" viewBox="0 0 512.191 512.191"><path d="M509.187 408.176c-3.534-5.691-9.646-9.09-16.348-9.09h-87.34c-.063-2.323.176-47.684-.192-48.226h90.484c8.99 0 16.304-7.314 16.304-16.305V53.508c0-8.99-7.313-16.305-16.304-16.305H358.65C342.532 14.905 316.309.368 286.755.368c-51.779 1.607-98.688-10.947-134.041 36.835H16.398c-8.99 0-16.304 7.314-16.304 16.305v49.76c0 4.143 3.357 7.5 7.5 7.5s7.5-3.357 7.5-7.5v-49.76c0-.72.585-1.305 1.304-1.305h127.566a87.964 87.964 0 0 0-5.641 16.409H39.08a7.499 7.499 0 0 0-7.5 7.5v235.839c0 4.143 3.357 7.5 7.5 7.5h30.271v16.409H16.398a1.306 1.306 0 0 1-1.304-1.305V141.767c0-4.143-3.357-7.5-7.5-7.5s-7.5 3.357-7.5 7.5v192.789c0 8.99 7.313 16.305 16.304 16.305H69.35v48.226h-50c-13.814 0-23.387 15.139-17.303 27.644l39.604 81.419c4.133 8.499 17.721 2.137 13.488-6.561l-39.604-81.42c-1.36-2.794.713-6.082 3.814-6.082h251.099c9.697 0 9.697-15 0-15h-96.434V377.92c0-4.143-3.357-7.5-7.5-7.5s-7.5 3.357-7.5 7.5v21.167H121.69v-43.24c0-24.262 18.203-45.771 41.715-50.933l20.396-4.477 43.676 49.34c2.951 3.334 8.129 3.375 11.136.107l17.678-19.214 17.678 19.214c3.007 3.267 8.185 3.226 11.136-.107l43.612-49.268 20.068 4.405c23.536 5.167 41.715 26.634 41.715 50.933v43.24h-37.324V377.92c0-4.143-3.357-7.5-7.5-7.5s-7.5 3.357-7.5 7.5v21.167h-26.191c-9.697 0-9.697 15 0 15H492.84c3.115 0 5.186 3.311 3.802 6.108l-40.249 81.348c-4.19 8.469 9.171 15.286 13.445 6.652l40.249-81.348c2.968-6.002 2.632-12.981-.9-18.671zM495.791 52.204c.719 0 1.304.585 1.304 1.305v281.048c0 .72-.585 1.305-1.304 1.305h-93.444a67.164 67.164 0 0 0-7.897-16.409h78.659c4.143 0 7.5-3.357 7.5-7.5V76.113c0-4.143-3.357-7.5-7.5-7.5H373.04a87.94 87.94 0 0 0-5.641-16.409zM277.638 288.019l-21.506 21.216-21.58-21.579v-12.758c13.9 4.196 29.188 4.195 43.086 0zm14.019-36.78c-20.939 15.643-50.186 15.643-71.125 0l-29.376-21.944c-10.733-8.02-17.142-20.806-17.142-34.202v-99.39c0-13.172 17.697-15.632 26.417-9.39 16.815 12.039 34.031 24.725 55.663 24.725 21.624 0 38.873-12.694 55.663-24.725 8.007-5.734 26.417-3.335 26.417 9.39v99.39c0 13.396-6.408 26.183-17.141 34.201zM147.89 145.077a6.396 6.396 0 0 1 6.389-6.388h4.736v30.07h-4.736a6.396 6.396 0 0 1-6.389-6.388zm205.285-6.388h4.736c3.537 0 6.389 2.881 6.389 6.388v17.295a6.396 6.396 0 0 1-6.389 6.388h-4.736zM224.608 15.369h62.146c40.046 0 73.656 33.664 73.656 73.656v34.81c-2.341-.274-4.882-.198-7.236-.145V95.703c0-24.829-32.062-34.538-50.149-21.585-14.112 10.105-28.646 21.92-46.931 21.92-18.193 0-32.888-11.868-46.931-21.92-18.642-13.351-50.149-3.898-50.149 21.585v27.986c-2.593-.076-5.51-.142-8.062.259V89.025c0-40.614 33.042-73.656 73.656-73.656zM84.351 319.452h33.388a67.164 67.164 0 0 0-7.897 16.409H84.351zm0 79.635v-48.226h22.532c-.368.61-.13 45.892-.192 48.226zm75.837-108.824a68.28 68.28 0 0 0-28.998 14.188H84.35v-12.197c0-1.128.672-2.148 1.672-2.582l13.503-5.763c6.406 7.516 17.734 9.991 26.672 5.86l26.706-12.339c26.528-12.259 7.416-54.558-19.471-42.132l-26.706 12.339c-8.419 3.89-13.825 13.217-13.033 22.45l-13.599 5.805a17.826 17.826 0 0 0-10.744 16.361v12.197H46.58V83.613h89.536c-.31 1.049-.112 47.723-.164 50.446a21.261 21.261 0 0 0-3.062 11.018v17.295c0 11.793 9.595 21.388 21.389 21.388h4.736v11.333c0 18.104 8.659 35.382 23.164 46.219 5.796 4.1 31.53 24.204 37.373 27.168v10.529a24.231 24.231 0 0 0-9.199.245l-50.165 11.009zm-51.092-24.731a7.52 7.52 0 0 1 3.922-4.276l26.706-12.339c8.626-3.985 16.458 10.476 6.889 14.897l-26.706 12.339c-6.209 2.867-13.123-4.336-10.811-10.621zm124.105 68.08-32.626-36.856 12.993-2.853a9.19 9.19 0 0 1 8.505 2.489l23.63 23.63zm46.18 0-12.503-13.59 23.63-23.63a9.2 9.2 0 0 1 8.507-2.489l12.992 2.853zm22.85-54.359a24.233 24.233 0 0 0-9.594-.175V268.48c5.653-2.838 31.707-23.154 37.374-27.169 14.504-10.836 23.163-28.114 23.163-46.218V183.76h4.736c11.794 0 21.389-9.595 21.389-21.388v-17.295a21.27 21.27 0 0 0-3.889-12.284c-.056-2.951.154-47.828-.164-49.18h90.362v220.839h-84.611a68.272 68.272 0 0 0-28.999-14.188z"/><path d="M262.013 186.532h-11.836c-18.474 0-33.503 15.03-33.503 33.504 0 4.143 3.357 7.5 7.5 7.5h63.842c4.143 0 7.5-3.357 7.5-7.5 0-18.474-15.03-33.504-33.503-33.504zm-28.75 26.004c2.883-6.477 9.38-11.004 16.914-11.004h11.836c7.534 0 14.031 4.527 16.914 11.004z"/></svg>