<svg xmlns="http://www.w3.org/2000/svg" width="512pt" height="512pt" viewBox="0 0 512 512"><path d="M66.156 461.23V375.72c0-9.653-15-9.719-15 0v85.511c0 9.653 15 9.72 15 0zM113.684 461.23V375.72c0-9.653-15-9.719-15 0v85.511c0 9.653 15 9.72 15 0zM45.047 267.77c-9.652 0-9.668 15 0 15 9.652 0 9.668-15 0-15zM82.422 267.77c-9.652 0-9.668 15 0 15 9.648 0 9.668-15 0-15zM119.79 267.77c-9.65 0-9.669 15 0 15 9.651 0 9.67-15 0-15zM222.496 257.645l22.274-22.274c6.824-6.824-3.77-17.441-10.61-10.605l-27.574 27.578a7.497 7.497 0 0 0 0 10.605l28.281 28.285c6.828 6.825 17.446-3.77 10.61-10.605zM348.77 224.766c-6.825-6.825-17.446 3.77-10.606 10.605l22.98 22.98-22.273 22.278c-6.824 6.824 3.77 17.437 10.606 10.605l27.578-27.578a7.497 7.497 0 0 0 0-10.605zM309.125 222.77a7.494 7.494 0 0 0-10.035 3.425l-28 57c-4.258 8.664 9.176 15.336 13.46 6.614l28-57a7.498 7.498 0 0 0-3.425-10.04zM418.89 56.55c-20.16 0-36.562 16.4-36.562 36.56s16.402 36.558 36.563 36.558 36.558-16.398 36.558-36.559-16.398-36.558-36.558-36.558zm0 58.118c-11.886 0-21.562-9.672-21.562-21.559s9.676-21.558 21.563-21.558 21.558 9.672 21.558 21.558-9.672 21.559-21.558 21.559zm0 0"/><path d="M506.266 113.36a7.5 7.5 0 0 0 5.734-7.29V80.148c0-9.652-15-9.718-15 0v20.024l-19.594 4.75a7.491 7.491 0 0 0-5.383 5.023 55.581 55.581 0 0 1-3.664 8.813 7.498 7.498 0 0 0 .25 7.363l10.504 17.23-9.984 9.985-17.227-10.508a7.498 7.498 0 0 0-7.363-.25 55.28 55.28 0 0 1-8.812 3.664 7.503 7.503 0 0 0-5.028 5.383l-4.75 19.594h-14.12l-4.75-19.594a7.498 7.498 0 0 0-5.024-5.383 55.581 55.581 0 0 1-8.813-3.664 7.498 7.498 0 0 0-7.363.25l-17.227 10.508-9.984-9.984 10.504-17.23a7.498 7.498 0 0 0 .25-7.364 55.581 55.581 0 0 1-3.664-8.813 7.491 7.491 0 0 0-5.383-5.023l-19.594-4.75V86.05l19.594-4.75a7.504 7.504 0 0 0 5.383-5.028 55.581 55.581 0 0 1 3.664-8.812 7.498 7.498 0 0 0-.25-7.363L358.668 42.87l9.984-9.984L385.88 43.39a7.498 7.498 0 0 0 7.363.25 55.949 55.949 0 0 1 8.813-3.664 7.491 7.491 0 0 0 5.023-5.383L411.828 15h14.121l4.75 19.594a7.504 7.504 0 0 0 5.028 5.383c2.988.949 5.953 2.18 8.812 3.664a7.498 7.498 0 0 0 7.363-.25l17.227-10.504 9.984 9.984-10.504 17.227a7.498 7.498 0 0 0-.25 7.363 55.581 55.581 0 0 1 3.664 8.812c2.91 9.204 17.23 4.739 14.301-4.527a70.32 70.32 0 0 0-2.785-7.32l11.453-18.781a7.504 7.504 0 0 0-1.101-9.211l-18.325-18.325a7.499 7.499 0 0 0-9.21-1.101L447.573 28.46a73.256 73.256 0 0 0-3.254-1.352l-5.183-21.375A7.492 7.492 0 0 0 431.852 0h-25.918a7.493 7.493 0 0 0-7.29 5.734l-5.183 21.375c-1.094.422-2.18.871-3.254 1.352l-18.781-11.453a7.499 7.499 0 0 0-9.211 1.101L343.89 36.434a7.504 7.504 0 0 0-1.102 9.21l11.453 18.782a70.695 70.695 0 0 0-1.355 3.254l-21.371 5.183a7.503 7.503 0 0 0-5.735 7.29v25.917a7.503 7.503 0 0 0 5.735 7.29l21.37 5.18c.426 1.093.876 2.179 1.356 3.253l-2.969 4.867h-235.57c-24.297 0-44.062 19.766-44.062 44.063v12.05H28.254C12.676 182.773 0 195.45 0 211.027V426c0 9.652 15 9.719 15 0V315.223h134.84v168.523c0 7.309-5.945 13.254-13.254 13.254H28.254C20.945 497 15 491.055 15 483.746V466c0-9.652-15-9.719-15 0v17.746C0 499.324 12.676 512 28.254 512h108.332c15.578 0 28.254-12.676 28.254-28.254v-42.184h76.883v55.188h-55.711c-9.653 0-9.719 15 0 15h211.617c9.652 0 9.719-15 0-15h-55.715v-55.188h126.023c24.297 0 44.063-19.769 44.063-44.066V170.723c0-13.914-6.367-26.723-17.469-35.137a7.483 7.483 0 0 0-3.465-1.445l-7.527-12.348a75.25 75.25 0 0 0 1.352-3.254zM256.723 496.75v-54.125h70.191v54.125zM28.253 197.773h108.333c7.309 0 13.254 5.946 13.254 13.254v24.29H15v-24.29c0-7.308 5.945-13.254 13.254-13.254zM15 300.223v-49.907h134.84v49.907zm482 54.02h-58c-9.652 0-9.719 15 0 15h58v28.253c0 16.027-13.04 29.063-29.063 29.063H164.84v-57.317H396c9.652 0 9.719-15 0-15H164.84V211.027c0-15.582-12.676-28.254-28.254-28.254H86.64v-12.05c0-16.028 13.035-29.063 29.062-29.063H342.25a7.495 7.495 0 0 0 1.64 8.125l18.325 18.324a7.499 7.499 0 0 0 9.21 1.102l18.782-11.453c1.074.476 2.16.93 3.254 1.351l5.184 21.375a7.497 7.497 0 0 0 7.289 5.735h25.918a7.503 7.503 0 0 0 7.289-5.735l5.18-21.375a71.364 71.364 0 0 0 3.253-1.351l18.785 11.453a7.498 7.498 0 0 0 9.207-1.102l15.282-15.28c3.96 5.046 6.152 11.276 6.152 17.894zm0 0"/></svg>